<svg width="241" height="54" viewBox="0 0 241 54" fill="none" xmlns="http://www.w3.org/2000/svg">
<path d="M17.2221 42.6986C13.9618 42.6986 10.8375 42.2716 7.84894 41.4178C4.8604 40.5251 2.45405 39.3801 0.629883 37.9829L3.83188 30.8803C5.57843 32.1222 7.63547 33.1508 10.003 33.9658C12.4094 34.7421 14.8351 35.1302 17.2803 35.1302C19.1433 35.1302 20.6375 34.9555 21.7631 34.6062C22.9275 34.2181 23.7813 33.6941 24.3247 33.0343C24.8681 32.3745 25.1397 31.6177 25.1397 30.7638C25.1397 29.6771 24.7128 28.8232 23.8589 28.2022C23.0051 27.5424 21.8795 27.0185 20.4823 26.6303C19.085 26.2034 17.5326 25.8153 15.8248 25.466C14.1559 25.0778 12.4676 24.6121 10.7598 24.0687C9.09093 23.5254 7.55785 22.8267 6.16061 21.9729C4.76337 21.119 3.61842 19.9935 2.72574 18.5962C1.87187 17.199 1.44494 15.4136 1.44494 13.2401C1.44494 10.9114 2.06593 8.79616 3.30792 6.89436C4.58872 4.95376 6.49051 3.42068 9.0133 2.29513C11.5749 1.13077 14.7769 0.548584 18.6193 0.548584C21.1809 0.548584 23.7037 0.85908 26.1877 1.48007C28.6716 2.06225 30.8645 2.95493 32.7663 4.15811L29.8554 11.3189C27.9536 10.2322 26.0518 9.43656 24.15 8.932C22.2482 8.38863 20.3853 8.11695 18.5611 8.11695C16.7369 8.11695 15.2426 8.33041 14.0783 8.75735C12.9139 9.18428 12.0795 9.74706 11.5749 10.4457C11.0703 11.1055 10.8181 11.8817 10.8181 12.7744C10.8181 13.8223 11.245 14.6762 12.0989 15.336C12.9527 15.957 14.0783 16.4616 15.4755 16.8497C16.8728 17.2378 18.4058 17.6259 20.0748 18.014C21.7825 18.4022 23.4708 18.8485 25.1397 19.3531C26.8475 19.8576 28.4 20.5368 29.7972 21.3907C31.1944 22.2446 32.32 23.3701 33.1739 24.7673C34.0665 26.1646 34.5129 27.9305 34.5129 30.0652C34.5129 32.3551 33.8725 34.451 32.5917 36.3528C31.3109 38.2546 29.3897 39.7876 26.8281 40.952C24.3053 42.1164 21.1033 42.6986 17.2221 42.6986Z" fill="#FAFAFA"/>
<path d="M53.5325 42.4657C50.9321 42.4657 48.6033 41.9611 46.5463 40.952C44.5281 39.9429 42.9562 38.4098 41.8306 36.3528C40.7051 34.2569 40.1423 31.5983 40.1423 28.3769V10.6785H49.2243V27.0379C49.2243 29.6383 49.7677 31.5595 50.8544 32.8015C51.98 34.0046 53.5519 34.6062 55.5701 34.6062C56.9674 34.6062 58.2093 34.3151 59.2961 33.7329C60.3828 33.112 61.2367 32.1805 61.8577 30.9385C62.4787 29.6577 62.7892 28.0664 62.7892 26.1646V10.6785H71.8712V41.9999H63.2549V33.3836L64.8268 35.887C63.7789 38.0605 62.2264 39.71 60.1693 40.8356C58.1511 41.9223 55.9388 42.4657 53.5325 42.4657Z" fill="#FAFAFA"/>
<path d="M98.7985 42.4657C96.1593 42.4657 93.8499 41.8835 91.8705 40.7191C89.8911 39.5548 88.3386 37.7888 87.2131 35.4213C86.1263 33.0149 85.583 29.9876 85.583 26.3392C85.583 22.6521 86.1069 19.6247 87.1548 17.2572C88.2028 14.8897 89.7164 13.1237 91.6959 11.9593C93.6753 10.795 96.0428 10.2128 98.7985 10.2128C101.748 10.2128 104.387 10.892 106.716 12.2504C109.084 13.5701 110.947 15.433 112.305 17.8394C113.702 20.2457 114.401 23.079 114.401 26.3392C114.401 29.6383 113.702 32.491 112.305 34.8973C110.947 37.3037 109.084 39.1666 106.716 40.4863C104.387 41.8059 101.748 42.4657 98.7985 42.4657ZM80.2851 53.2943V10.6785H88.9596V17.0825L88.785 26.3975L89.3671 35.6542V53.2943H80.2851ZM97.2266 35.0138C98.7403 35.0138 100.079 34.6644 101.244 33.9658C102.447 33.2672 103.398 32.2775 104.096 30.9967C104.834 29.6771 105.202 28.1246 105.202 26.3392C105.202 24.5151 104.834 22.9626 104.096 21.6818C103.398 20.401 102.447 19.4113 101.244 18.7127C100.079 18.014 98.7403 17.6647 97.2266 17.6647C95.7129 17.6647 94.3545 18.014 93.1513 18.7127C91.9481 19.4113 90.9972 20.401 90.2986 21.6818C89.6 22.9626 89.2507 24.5151 89.2507 26.3392C89.2507 28.1246 89.6 29.6771 90.2986 30.9967C90.9972 32.2775 91.9481 33.2672 93.1513 33.9658C94.3545 34.6644 95.7129 35.0138 97.2266 35.0138Z" fill="#FAFAFA"/>
<path d="M136.025 42.4657C132.454 42.4657 129.31 41.7671 126.594 40.3698C123.916 38.9726 121.839 37.0708 120.364 34.6644C118.889 32.2193 118.152 29.4442 118.152 26.3392C118.152 23.1955 118.87 20.4204 120.306 18.014C121.781 15.5689 123.78 13.6671 126.302 12.3087C128.825 10.9114 131.678 10.2128 134.861 10.2128C137.927 10.2128 140.682 10.8726 143.128 12.1922C145.612 13.473 147.572 15.336 149.008 17.7812C150.444 20.1875 151.162 23.079 151.162 26.4557C151.162 26.805 151.142 27.2125 151.103 27.6783C151.065 28.1052 151.026 28.5127 150.987 28.9008H125.546V23.603H146.213L142.72 25.1749C142.72 23.5448 142.39 22.1281 141.73 20.9249C141.07 19.7218 140.158 18.7903 138.994 18.1305C137.83 17.4319 136.471 17.0825 134.919 17.0825C133.366 17.0825 131.988 17.4319 130.785 18.1305C129.621 18.7903 128.709 19.7412 128.049 20.9832C127.389 22.1863 127.059 23.6224 127.059 25.2913V26.6885C127.059 28.3963 127.428 29.91 128.165 31.2296C128.942 32.5104 130.009 33.5001 131.367 34.1987C132.765 34.8585 134.395 35.1884 136.258 35.1884C137.927 35.1884 139.382 34.9361 140.624 34.4316C141.905 33.927 143.069 33.1702 144.117 32.1611L148.949 37.4007C147.513 39.0308 145.709 40.2922 143.535 41.1849C141.362 42.0387 138.858 42.4657 136.025 42.4657Z" fill="#FAFAFA"/>
<path d="M157.208 41.9999V10.6785H165.883V19.5277L164.66 16.9661C165.592 14.7538 167.086 13.0849 169.143 11.9593C171.2 10.795 173.703 10.2128 176.653 10.2128V18.5962C176.265 18.5574 175.916 18.538 175.605 18.538C175.295 18.4992 174.965 18.4798 174.615 18.4798C172.131 18.4798 170.113 19.1978 168.561 20.6339C167.047 22.0311 166.29 24.224 166.29 27.2125V41.9999H157.208Z" fill="#FAFAFA"/>
<path d="M184.726 41.9999V1.2472H189.034V41.9999H184.726Z" fill="#F4EB00"/>
<path d="M202.294 41.9999V1.2472H218.886C223.233 1.2472 227.036 2.12047 230.297 3.86702C233.596 5.57475 236.157 7.9617 237.981 11.0279C239.806 14.094 240.718 17.6259 240.718 21.6236C240.718 25.6212 239.806 29.1531 237.981 32.2193C236.157 35.2854 233.596 37.6918 230.297 39.4383C227.036 41.1461 223.233 41.9999 218.886 41.9999H202.294ZM206.602 38.274H218.653C222.262 38.274 225.387 37.5754 228.026 36.1781C230.704 34.7421 232.781 32.7821 234.255 30.2981C235.73 27.7753 236.468 24.8838 236.468 21.6236C236.468 18.3245 235.73 15.433 234.255 12.9491C232.781 10.4651 230.704 8.52447 228.026 7.12724C225.387 5.69119 222.262 4.97316 218.653 4.97316H206.602V38.274Z" fill="#F4EB00"/>
</svg>
