<svg width="448" height="400" viewBox="0 0 448 400" fill="none" xmlns="http://www.w3.org/2000/svg">
<path fill-rule="evenodd" clip-rule="evenodd" d="M64 55.9817H384C387.738 55.9799 391.472 56.2171 395.18 56.6917C393.923 47.8694 390.893 39.393 386.272 31.7736C381.65 24.1541 375.534 17.5494 368.291 12.3577C361.048 7.16601 352.829 3.4948 344.129 1.56544C335.429 -0.363924 326.429 -0.511472 317.67 1.13168L54.5 46.0617H54.2C37.6807 49.2207 22.9906 58.567 13.13 72.1917C27.986 61.6249 45.7694 55.9581 64 55.9817ZM384 79.9817H64C47.0318 80.0002 30.7639 86.749 18.7656 98.7473C6.76731 110.746 0.0185286 127.014 0 143.982V335.982C0.0185286 352.95 6.76731 369.218 18.7656 381.216C30.7639 393.214 47.0318 399.963 64 399.982H384C400.968 399.963 417.236 393.214 429.234 381.216C441.233 369.218 447.981 352.95 448 335.982V143.982C447.981 127.014 441.233 110.746 429.234 98.7473C417.236 86.749 400.968 80.0002 384 79.9817ZM336.5 271.982C330.171 271.982 323.984 270.105 318.722 266.589C313.459 263.073 309.358 258.075 306.936 252.228C304.514 246.38 303.88 239.946 305.115 233.739C306.35 227.531 309.397 221.83 313.873 217.354C318.348 212.879 324.05 209.831 330.257 208.597C336.465 207.362 342.899 207.996 348.746 210.418C354.593 212.84 359.591 216.941 363.107 222.203C366.623 227.466 368.5 233.653 368.5 239.982C368.5 248.469 365.129 256.608 359.127 262.609C353.126 268.61 344.987 271.982 336.5 271.982ZM130.251 146.744C138.796 139.188 150.059 135.184 161.5 135.184C172.941 135.184 184.204 139.188 192.749 146.744C201.349 154.349 206.566 165.054 206.566 176.634V195.66C222.45 196.286 237.816 208.187 237.816 226.03V286.825C237.816 305.16 221.59 317.221 205.25 317.221H117.75C101.41 317.221 85.1842 305.16 85.1842 286.825V226.03C85.1842 208.187 100.55 196.286 116.434 195.66V176.634C116.434 165.054 121.651 154.349 130.251 146.744ZM130.188 223.265C130.208 223.265 130.229 223.265 130.25 223.265C130.271 223.265 130.292 223.265 130.312 223.265H192.688C192.708 223.265 192.729 223.265 192.75 223.265C192.771 223.265 192.792 223.265 192.812 223.265H205.25C207.138 223.265 208.549 223.942 209.356 224.655C210.137 225.346 210.184 225.859 210.184 226.03V286.825C210.184 286.996 210.137 287.509 209.356 288.2C208.549 288.913 207.138 289.59 205.25 289.59H117.75C115.862 289.59 114.451 288.913 113.644 288.2C112.863 287.509 112.816 286.996 112.816 286.825V226.03C112.816 225.859 112.863 225.346 113.644 224.655C114.451 223.942 115.862 223.265 117.75 223.265H130.188ZM178.934 195.634H144.066V176.634C144.066 173.556 145.434 170.203 148.555 167.443C151.731 164.635 156.365 162.816 161.5 162.816C166.635 162.816 171.269 164.635 174.445 167.443C177.566 170.203 178.934 173.556 178.934 176.634V195.634Z" fill="url(#paint0_linear_33_445)"/>
<path d="M63.9999 55.9817H384C387.738 55.9799 391.472 56.2171 395.18 56.6917C393.923 47.8694 390.893 39.393 386.271 31.7736C381.65 24.1541 375.534 17.5494 368.291 12.3577C361.048 7.16601 352.829 3.4948 344.129 1.56544C335.429 -0.363924 326.428 -0.511472 317.67 1.13168L54.4999 46.0617H54.1999C37.6806 49.2207 22.9905 58.567 13.1299 72.1917C27.9858 61.6249 45.7693 55.9581 63.9999 55.9817Z" fill="#9A9503"/>
<defs>
<linearGradient id="paint0_linear_33_445" x1="224" y1="0" x2="224" y2="399.982" gradientUnits="userSpaceOnUse">
<stop stop-color="#E2DA06"/>
<stop offset="1" stop-color="#A8A200"/>
</linearGradient>
</defs>
</svg>
