<svg width="441" height="441" viewBox="0 0 441 441" fill="none" xmlns="http://www.w3.org/2000/svg">
<rect width="441" height="441" rx="220.5" fill="#252525"/>
<path d="M152.326 150.304C160.201 148.262 174.391 147.022 180.501 146.657C181.633 135.474 190.956 112.888 219.199 112.012C247.442 111.137 258.802 134.987 260.952 147.022C268.828 147.022 283.243 149.21 289.467 150.304C289.806 143.01 280.301 79.92 219.199 81.0141C170.317 81.8893 154.25 127.572 152.326 150.304Z" fill="url(#paint0_linear_1_39)"/>
<mask id="mask0_1_39" style="mask-type:alpha" maskUnits="userSpaceOnUse" x="107" y="135" width="228" height="223">
<path d="M303.405 192.4C302.484 190.366 298.582 188.534 296.97 187.5C289.218 182.523 280.788 178.724 272.197 175.905C256.31 170.693 238.893 167.348 222.329 167.349C203.747 167.349 184.921 169.875 167.046 175.037C158.539 177.494 142.165 181.065 139.292 191.804C138.047 196.457 141.008 200.825 143.928 203.902C157.629 218.343 177.992 224.557 195.149 232.219C205.937 237.037 216.738 241.999 227.125 247.804C233.685 251.47 239.712 255.605 244.834 261.421C250.184 267.494 255.022 273.97 258.872 281.233C260.956 285.165 262.526 288.827 263.682 293.158C264.959 297.942 261.365 300.96 258.296 303.633C249.352 311.421 237.445 314.644 226.623 318.099C219.391 320.408 212.01 322.185 204.797 324.543C203.17 325.075 201.495 325.604 200.015 326.436" stroke="url(#paint1_linear_1_39)" stroke-width="62.7385" stroke-linecap="round"/>
</mask>
<g mask="url(#mask0_1_39)">
<path d="M103.707 172.773C104.424 176.001 110.093 180.441 112.008 183.208C117.872 191.677 124.225 199.762 130.169 208.171C144.026 227.775 157.279 247.801 170.697 267.725C181.506 283.774 195.621 297.131 207.421 312.347C217.784 325.709 226.974 340.053 238.092 352.818C241.418 356.637 244.176 360.895 247.72 364.521C249.325 366.164 251.772 367.895 252.908 369.941C253.266 370.584 254.936 372.611 254.753 372.593C248.34 371.951 241.274 364.921 236.305 361.408C213.145 345.036 196.125 323.304 176.347 303.526" stroke="#9A9503" stroke-width="62.7385" stroke-linecap="round"/>
</g>
<path d="M303.405 192.4C302.484 190.366 298.582 188.534 296.97 187.5C289.218 182.523 280.788 178.724 272.197 175.905C256.31 170.693 238.893 167.348 222.329 167.349C203.747 167.349 184.921 169.875 167.046 175.037C158.539 177.494 142.165 181.065 139.292 191.804C138.047 196.457 141.008 200.825 143.928 203.902C157.629 218.343 177.992 224.557 195.149 232.219C205.937 237.037 216.738 241.999 227.125 247.804C233.685 251.47 239.712 255.605 244.834 261.421C250.184 267.494 255.022 273.97 258.872 281.233C260.956 285.165 262.526 288.827 263.682 293.158C264.959 297.942 261.365 300.96 258.296 303.633C249.352 311.421 237.445 314.644 226.623 318.099C219.391 320.408 212.01 322.185 204.797 324.543C203.17 325.075 201.495 325.604 200.015 326.436" stroke="url(#paint2_linear_1_39)" stroke-width="62.7385" stroke-linecap="round"/>
<defs>
<linearGradient id="paint0_linear_1_39" x1="220.901" y1="81" x2="220.901" y2="150.304" gradientUnits="userSpaceOnUse">
<stop stop-color="#FEF501"/>
<stop offset="1" stop-color="#E2DA06"/>
</linearGradient>
<linearGradient id="paint1_linear_1_39" x1="220.901" y1="145.927" x2="221.202" y2="326.436" gradientUnits="userSpaceOnUse">
<stop stop-color="#E2DA06"/>
<stop offset="1" stop-color="#9A9503"/>
</linearGradient>
<linearGradient id="paint2_linear_1_39" x1="220.901" y1="145.927" x2="221.202" y2="326.436" gradientUnits="userSpaceOnUse">
<stop stop-color="#FFF601"/>
<stop offset="1" stop-color="#E2DA06"/>
</linearGradient>
</defs>
</svg>
