<svg width="529" height="117" viewBox="0 0 529 117" fill="none" xmlns="http://www.w3.org/2000/svg">
<path d="M37.064 93.536C29.896 93.536 23.0267 92.5973 16.456 90.72C9.88533 88.7573 4.59467 86.24 0.584 83.168L7.624 67.552C11.464 70.2827 15.9867 72.544 21.192 74.336C26.4827 76.0427 31.816 76.896 37.192 76.896C41.288 76.896 44.5733 76.512 47.048 75.744C49.608 74.8907 51.4853 73.7387 52.68 72.288C53.8747 70.8373 54.472 69.1733 54.472 67.296C54.472 64.9067 53.5333 63.0293 51.656 61.664C49.7787 60.2133 47.304 59.0613 44.232 58.208C41.16 57.2693 37.7467 56.416 33.992 55.648C30.3227 54.7947 26.6107 53.7707 22.856 52.576C19.1867 51.3813 15.816 49.8453 12.744 47.968C9.672 46.0907 7.15467 43.616 5.192 40.544C3.31467 37.472 2.376 33.5467 2.376 28.768C2.376 23.648 3.74133 18.9973 6.472 14.816C9.288 10.5493 13.4693 7.17866 19.016 4.70399C24.648 2.144 31.688 0.863998 40.136 0.863998C45.768 0.863998 51.3147 1.54666 56.776 2.91199C62.2373 4.19199 67.0587 6.15466 71.24 8.8L64.84 24.544C60.6587 22.1547 56.4773 20.4053 52.296 19.296C48.1147 18.1013 44.0187 17.504 40.008 17.504C35.9973 17.504 32.712 17.9733 30.152 18.912C27.592 19.8507 25.7573 21.088 24.648 22.624C23.5387 24.0747 22.984 25.7813 22.984 27.744C22.984 30.048 23.9227 31.9253 25.8 33.376C27.6773 34.7413 30.152 35.8507 33.224 36.704C36.296 37.5573 39.6667 38.4107 43.336 39.264C47.0907 40.1173 50.8027 41.0987 54.472 42.208C58.2267 43.3173 61.64 44.8107 64.712 46.688C67.784 48.5653 70.2587 51.04 72.136 54.112C74.0987 57.184 75.08 61.0667 75.08 65.76C75.08 70.7947 73.672 75.4027 70.856 79.584C68.04 83.7653 63.816 87.136 58.184 89.696C52.6373 92.256 45.5973 93.536 37.064 93.536ZM116.897 93.024C111.18 93.024 106.06 91.9147 101.537 89.696C97.0997 87.4773 93.6437 84.1067 91.169 79.584C88.6943 74.976 87.457 69.1307 87.457 62.048V23.136H107.425V59.104C107.425 64.8213 108.62 69.0453 111.009 71.776C113.484 74.4213 116.94 75.744 121.377 75.744C124.449 75.744 127.18 75.104 129.569 73.824C131.958 72.4587 133.836 70.4107 135.201 67.68C136.566 64.864 137.249 61.3653 137.249 57.184V23.136H157.217V92H138.273V73.056L141.729 78.56C139.425 83.3387 136.012 86.9653 131.489 89.44C127.052 91.8293 122.188 93.024 116.897 93.024ZM216.42 93.024C210.617 93.024 205.54 91.744 201.188 89.184C196.836 86.624 193.423 82.7413 190.948 77.536C188.559 72.2453 187.364 65.5893 187.364 57.568C187.364 49.4613 188.516 42.8053 190.82 37.6C193.124 32.3947 196.452 28.512 200.804 25.952C205.156 23.392 210.361 22.112 216.42 22.112C222.905 22.112 228.708 23.6053 233.828 26.592C239.033 29.4933 243.129 33.5893 246.116 38.88C249.188 44.1707 250.724 50.4 250.724 57.568C250.724 64.8213 249.188 71.0933 246.116 76.384C243.129 81.6747 239.033 85.7707 233.828 88.672C228.708 91.5733 222.905 93.024 216.42 93.024ZM175.716 116.832V23.136H194.788V37.216L194.404 57.696L195.684 78.048V116.832H175.716ZM212.964 76.64C216.292 76.64 219.236 75.872 221.796 74.336C224.441 72.8 226.532 70.624 228.068 67.808C229.689 64.9067 230.5 61.4933 230.5 57.568C230.5 53.5573 229.689 50.144 228.068 47.328C226.532 44.512 224.441 42.336 221.796 40.8C219.236 39.264 216.292 38.496 212.964 38.496C209.636 38.496 206.649 39.264 204.004 40.8C201.359 42.336 199.268 44.512 197.732 47.328C196.196 50.144 195.428 53.5573 195.428 57.568C195.428 61.4933 196.196 64.9067 197.732 67.808C199.268 70.624 201.359 72.8 204.004 74.336C206.649 75.872 209.636 76.64 212.964 76.64ZM298.267 93.024C290.416 93.024 283.504 91.488 277.531 88.416C271.643 85.344 267.078 81.1627 263.835 75.872C260.592 70.496 258.971 64.3947 258.971 57.568C258.971 50.656 260.55 44.5547 263.707 39.264C266.95 33.888 271.344 29.7067 276.891 26.72C282.438 23.648 288.71 22.112 295.707 22.112C302.448 22.112 308.507 23.5627 313.883 26.464C319.344 29.28 323.654 33.376 326.811 38.752C329.968 44.0427 331.547 50.4 331.547 57.824C331.547 58.592 331.504 59.488 331.419 60.512C331.334 61.4507 331.248 62.3467 331.163 63.2H275.227V51.552H320.667L312.987 55.008C312.987 51.424 312.262 48.3093 310.811 45.664C309.36 43.0187 307.355 40.9707 304.795 39.52C302.235 37.984 299.248 37.216 295.835 37.216C292.422 37.216 289.392 37.984 286.747 39.52C284.187 40.9707 282.182 43.0613 280.731 45.792C279.28 48.4373 278.555 51.5947 278.555 55.264V58.336C278.555 62.0907 279.366 65.4187 280.987 68.32C282.694 71.136 285.04 73.312 288.027 74.848C291.099 76.2987 294.683 77.024 298.779 77.024C302.448 77.024 305.648 76.4693 308.379 75.36C311.195 74.2507 313.755 72.5867 316.059 70.368L326.683 81.888C323.526 85.472 319.558 88.2453 314.779 90.208C310 92.0853 304.496 93.024 298.267 93.024ZM344.841 92V23.136H363.913V42.592L361.225 36.96C363.273 32.096 366.558 28.4267 371.081 25.952C375.604 23.392 381.108 22.112 387.593 22.112V40.544C386.74 40.4587 385.972 40.416 385.289 40.416C384.606 40.3307 383.881 40.288 383.113 40.288C377.652 40.288 373.214 41.8667 369.801 45.024C366.473 48.096 364.809 52.9173 364.809 59.488V92H344.841ZM405.342 92V2.39999H414.814V92H405.342ZM443.967 92V2.39999H480.447C490.004 2.39999 498.367 4.31999 505.535 8.16C512.788 11.9147 518.42 17.1627 522.431 23.904C526.442 30.6453 528.447 38.4107 528.447 47.2C528.447 55.9893 526.442 63.7547 522.431 70.496C518.42 77.2373 512.788 82.528 505.535 86.368C498.367 90.1227 490.004 92 480.447 92H443.967ZM453.439 83.808H479.935C487.871 83.808 494.74 82.272 500.543 79.2C506.431 76.0427 510.996 71.7333 514.239 66.272C517.482 60.7253 519.103 54.368 519.103 47.2C519.103 39.9467 517.482 33.5893 514.239 28.128C510.996 22.6667 506.431 18.4 500.543 15.328C494.74 12.1707 487.871 10.592 479.935 10.592H453.439V83.808Z" fill="#FAFAFA"/>
</svg>
