<svg width="603" height="143" viewBox="0 0 603 143" fill="none" xmlns="http://www.w3.org/2000/svg">
<path d="M41.6726 114.274C33.4843 114.274 25.6372 113.116 18.1313 110.801C10.6253 108.381 4.58155 105.277 0 101.489L8.04209 82.2329C12.4287 85.6001 17.5951 88.3885 23.5414 90.5982C29.5851 92.7027 35.6776 93.755 41.8189 93.755C46.4979 93.755 50.2509 93.2815 53.0778 92.3344C56.0022 91.2822 58.1467 89.8617 59.5114 88.0728C60.8762 86.284 61.5585 84.2321 61.5585 81.9172C61.5585 78.9709 60.4862 76.656 58.3417 74.9724C56.1971 73.1836 53.3702 71.7631 49.8609 70.7108C46.3517 69.5533 42.4525 68.5011 38.1634 67.5541C33.9717 66.5018 29.7314 65.2391 25.4422 63.766C21.2506 62.2929 17.4002 60.3988 13.8909 58.0839C10.3816 55.7689 7.50595 52.7174 5.26391 48.9294C3.11935 45.1413 2.04708 40.301 2.04708 34.4084C2.04708 28.0949 3.60675 22.3602 6.72611 17.2042C9.94294 11.943 14.7195 7.7866 21.0556 4.73509C27.4893 1.57836 35.5314 0 45.1819 0C51.6156 0 57.9518 0.841794 64.1905 2.52538C70.4292 4.10375 75.9368 6.52391 80.7133 9.78587L73.4023 29.1998C68.6258 26.2535 63.8493 24.0964 59.0728 22.7285C54.2963 21.2553 49.6172 20.5188 45.0357 20.5188C40.4541 20.5188 36.7012 21.0975 33.7768 22.255C30.8524 23.4124 28.7566 24.9382 27.4893 26.8322C26.2221 28.621 25.5885 30.7255 25.5885 33.1457C25.5885 35.9868 26.6607 38.3017 28.8053 40.0905C30.9498 41.7741 33.7768 43.142 37.286 44.1943C40.7953 45.2465 44.6458 46.2987 48.8374 47.351C53.1265 48.4032 57.3669 49.6133 61.5585 50.9812C65.8476 52.3492 69.7468 54.1906 73.2561 56.5055C76.7654 58.8205 79.5923 61.872 81.7368 65.66C83.9789 69.4481 85.0999 74.2358 85.0999 80.0232C85.0999 86.2314 83.4915 91.9135 80.2746 97.0695C77.0578 102.226 72.2326 106.382 65.7989 109.539C59.4627 112.695 51.4206 114.274 41.6726 114.274Z" fill="#FAFAFA"/>
<path d="M132.869 113.642C126.338 113.642 120.489 112.274 115.323 109.539C110.254 106.803 106.306 102.646 103.479 97.0695C100.652 91.3874 99.2387 84.1795 99.2387 75.4459V27.4636H122.049V71.8157C122.049 78.8657 123.414 84.0743 126.143 87.4415C128.97 90.7035 132.918 92.3344 137.987 92.3344C141.496 92.3344 144.616 91.5452 147.345 89.9669C150.074 88.2833 152.219 85.7579 153.779 82.3907C155.338 78.9183 156.118 74.6041 156.118 69.4481V27.4636H178.928V112.38H157.288V89.0199L161.236 95.8068C158.604 101.699 154.705 106.171 149.538 109.223C144.469 112.169 138.913 113.642 132.869 113.642Z" fill="#FAFAFA"/>
<path d="M246.558 113.642C239.93 113.642 234.13 112.064 229.158 108.907C224.187 105.751 220.288 100.963 217.461 94.5441C214.731 88.0202 213.367 79.8127 213.367 69.9216C213.367 59.9253 214.683 51.7178 217.315 45.2991C219.946 38.8804 223.748 34.0927 228.72 30.936C233.691 27.7792 239.637 26.2009 246.558 26.2009C253.967 26.2009 260.596 28.0423 266.444 31.7252C272.391 35.3028 277.07 40.3536 280.481 46.8775C283.991 53.4014 285.745 61.0828 285.745 69.9216C285.745 78.8657 283.991 86.5997 280.481 93.1236C277.07 99.6475 272.391 104.698 266.444 108.276C260.596 111.854 253.967 113.642 246.558 113.642ZM200.061 143V27.4636H221.847V44.8256L221.409 70.0795L222.871 95.1755V143H200.061ZM242.611 93.4393C246.412 93.4393 249.775 92.4923 252.7 90.5982C255.722 88.7042 258.11 86.021 259.865 82.5486C261.717 78.9709 262.643 74.7619 262.643 69.9216C262.643 64.9761 261.717 60.7671 259.865 57.2947C258.11 53.8223 255.722 51.1391 252.7 49.245C249.775 47.351 246.412 46.404 242.611 46.404C238.809 46.404 235.397 47.351 232.375 49.245C229.353 51.1391 226.965 53.8223 225.21 57.2947C223.456 60.7671 222.578 64.9761 222.578 69.9216C222.578 74.7619 223.456 78.9709 225.21 82.5486C226.965 86.021 229.353 88.7042 232.375 90.5982C235.397 92.4923 238.809 93.4393 242.611 93.4393Z" fill="#FAFAFA"/>
<path d="M340.056 113.642C331.088 113.642 323.192 111.748 316.368 107.96C309.642 104.172 304.427 99.0162 300.723 92.4923C297.018 85.8631 295.166 78.3396 295.166 69.9216C295.166 61.3984 296.97 53.8749 300.576 47.351C304.281 40.7218 309.301 35.5658 315.637 31.883C321.973 28.0949 329.138 26.2009 337.131 26.2009C344.832 26.2009 351.753 27.9897 357.895 31.5673C364.133 35.0397 369.056 40.0905 372.663 46.7196C376.27 53.2436 378.073 61.0828 378.073 70.2373C378.073 71.1843 378.024 72.2892 377.927 73.5519C377.829 74.7093 377.732 75.8142 377.634 76.8664H313.736V62.5033H365.644L356.871 66.7649C356.871 62.3455 356.042 58.5048 354.385 55.2428C352.728 51.9809 350.437 49.4555 347.513 47.6667C344.589 45.7726 341.177 44.8256 337.278 44.8256C333.378 44.8256 329.918 45.7726 326.896 47.6667C323.972 49.4555 321.681 52.0335 320.024 55.4007C318.366 58.6626 317.538 62.5559 317.538 67.0806V70.8686C317.538 75.4985 318.464 79.6023 320.316 83.1799C322.266 86.6523 324.946 89.3355 328.358 91.2296C331.867 93.0184 335.962 93.9128 340.641 93.9128C344.832 93.9128 348.488 93.2288 351.607 91.8609C354.824 90.493 357.748 88.4411 360.38 85.7053L372.517 99.9106C368.91 104.33 364.377 107.75 358.918 110.17C353.459 112.485 347.172 113.642 340.056 113.642Z" fill="#FAFAFA"/>
<path d="M393.259 112.38V27.4636H415.046V51.4547L411.975 44.5099C414.315 38.5121 418.068 33.9875 423.234 30.936C428.401 27.7792 434.688 26.2009 442.097 26.2009V48.9294C441.122 48.8241 440.244 48.7715 439.465 48.7715C438.685 48.6663 437.856 48.6137 436.979 48.6137C430.74 48.6137 425.671 50.5603 421.772 54.4536C417.97 58.2417 416.069 64.1869 416.069 72.2892V112.38H393.259Z" fill="#FAFAFA"/>
<path d="M462.372 112.38V1.89403H473.192V112.38H462.372Z" fill="#F4EB00"/>
<path d="M506.495 112.38V1.89403H548.168C559.085 1.89403 568.638 4.26158 576.827 8.99669C585.112 13.6266 591.546 20.0979 596.128 28.4106C600.709 36.7233 603 46.2987 603 57.1369C603 67.975 600.709 77.5504 596.128 85.8631C591.546 94.1759 585.112 100.7 576.827 105.435C568.638 110.065 559.085 112.38 548.168 112.38H506.495ZM517.315 102.278H547.583C556.648 102.278 564.495 100.384 571.124 96.596C577.85 92.7027 583.065 87.3889 586.77 80.6545C590.474 73.8149 592.326 65.9757 592.326 57.1369C592.326 48.1928 590.474 40.3536 586.77 33.6192C583.065 26.8848 577.85 21.6236 571.124 17.8355C564.495 13.9422 556.648 11.9956 547.583 11.9956H517.315V102.278Z" fill="#F4EB00"/>
</svg>
